<svg width="108" height="108" viewBox="0 0 108 108" fill="none" xmlns="http://www.w3.org/2000/svg">
<path d="M105.999 22.784C106.025 26.1209 103.206 28.5385 100.286 28.5174C97.6319 28.4984 94.6537 26.3882 94.6495 22.765C94.6467 19.4197 97.2246 16.9951 100.339 17C103.668 17.0063 106.066 19.7714 105.999 22.7861V22.784Z" />
<path d="M96.09 52.6339V33.3876C96.09 32.5351 96.0372 32.6406 96.813 32.6392C99.2503 32.6364 101.686 32.6392 104.123 32.642C104.925 32.6434 104.858 32.5541 104.858 33.382V62.3892C104.858 65.5052 104.858 68.6192 104.859 71.7352C104.859 71.9195 104.856 72.1038 104.856 72.2888C104.856 72.4576 104.771 72.5399 104.608 72.5441C104.471 72.5483 104.334 72.5483 104.197 72.5483C101.714 72.5483 99.2327 72.5469 96.7497 72.5455C96.0914 72.5455 96.1582 72.6102 96.1582 71.8224V52.043L96.09 52.6339Z" />
<path d="M89.8121 33.937C89.8121 33.6599 89.8163 33.3834 89.8107 33.1063C89.8022 32.6111 89.7994 32.5984 89.3295 32.5984C86.7326 32.5935 84.1364 32.5935 81.5395 32.5977C81.033 32.5977 81.0288 32.6076 81.0225 33.1365C81.0098 34.5672 81.0028 35.9979 80.9887 37.4286C80.9873 37.5988 81.0239 37.7817 80.9388 37.9372C80.8734 37.9245 80.8445 37.9273 80.8347 37.9161C80.6595 37.7044 80.4858 37.4898 80.3106 37.2781C78.5444 35.1377 76.3562 33.6247 73.7452 32.7321C71.3839 31.9246 68.9509 31.6967 66.4749 31.7558C64.5005 31.8036 62.5746 32.1166 60.7352 32.8481C55.9873 34.7367 52.5154 38.1053 50.1808 42.6246C47.617 47.587 47.3166 52.8723 48.651 58.2399C49.8924 63.2347 52.853 67.0822 56.8708 70.13C58.7545 71.5593 60.8717 72.4941 63.1852 72.9675C65.6935 73.481 68.2088 73.4894 70.722 73.0569C74.5928 72.3914 78.1435 71.0339 80.9922 67.9312C81.0077 68.1908 81.0274 68.3237 81.0218 68.4567C80.981 69.3556 80.955 70.2538 80.8157 71.145C80.1439 75.4224 77.9487 78.5032 73.9309 80.1464C70.8718 81.3984 67.7312 81.5285 64.5497 80.7442C61.58 80.012 58.9852 78.6144 57.0122 76.175C56.7688 75.8732 56.7505 75.8775 56.3932 76.2383C54.5552 78.096 52.7201 79.9586 50.8835 81.819C50.8195 81.8837 50.7569 81.9513 50.6915 82.016C50.5733 82.1327 50.5677 82.2509 50.6774 82.3761C50.8139 82.5323 50.9461 82.6891 51.0854 82.8425C52.9205 84.8443 55.0659 86.4241 57.4905 87.6072C63.1837 90.3856 69.1176 90.7781 75.204 89.32C78.5261 88.5238 81.4565 86.9524 83.8733 84.4652C86.0975 82.1771 87.5296 79.4275 88.4559 76.3867C89.4737 73.0491 89.8043 69.6116 89.8086 66.1383C89.824 55.4045 89.8156 44.6708 89.8156 33.9377L89.8121 33.937ZM81.1836 52.7225C81.1322 56.9618 79.4926 60.4971 76.0031 63.0849C74.2903 64.3559 72.3475 65.0452 70.2472 65.2485C67.6622 65.4982 65.1413 65.2267 62.8222 63.9472C59.014 61.8455 56.8413 58.5958 56.3348 54.2193C56.0556 51.8151 56.2546 49.4475 57.2387 47.2346C59.192 42.8455 62.5373 40.3055 67.3063 39.7977C70.051 39.5043 72.6859 39.9137 75.0704 41.362C78.6907 43.5622 80.7123 46.8252 81.1069 51.1012C81.1364 51.4233 81.1639 51.7448 81.1822 52.0676C81.192 52.254 81.1836 52.4383 81.1836 52.7225Z" />
<path fill-rule="evenodd" clip-rule="evenodd" d="M24.3453 73.3002C28.4271 72.7319 32.1572 71.3413 35.0699 68.1261C35.1761 68.3111 35.1649 68.4665 35.1543 68.6093C35.1515 68.6459 35.1487 68.6825 35.148 68.7183C35.1522 69.3549 35.1522 69.9915 35.1522 70.6288C35.1515 71.0536 35.1522 71.4777 35.1529 71.9026C35.1536 72.3056 35.1367 72.4871 35.2183 72.568C35.3013 72.6496 35.4877 72.6271 35.8999 72.6278C38.2915 72.6306 40.6816 72.6334 43.0731 72.6264C43.5507 72.6257 43.7617 72.663 43.8539 72.575C43.9446 72.4892 43.9207 72.2824 43.9207 71.7999V42.3475C43.9207 39.1583 43.92 35.9698 43.9207 32.7813C43.9207 32.7447 43.9193 32.7082 43.9179 32.6716C43.9158 32.5928 43.9137 32.514 43.9228 32.4367C43.9573 32.125 43.8686 31.9865 43.5184 31.9879C40.8757 32.002 38.2338 32.002 35.5925 31.9879C35.2183 31.9851 35.1424 32.1307 35.1452 32.4725C35.1592 33.9947 35.1536 35.5182 35.1466 37.0411C35.1466 37.0727 35.1522 37.1065 35.1578 37.1409C35.1754 37.257 35.1951 37.3836 35.0256 37.4547C34.9299 37.3393 34.835 37.2232 34.7407 37.1079C34.5593 36.8863 34.3778 36.6647 34.1907 36.4488C32.473 35.2038 30.4057 33.7281 27.9396 32.8728C24.0576 31.5251 20.1059 31.3837 16.1895 32.578C10.1346 34.4265 6.01206 38.5315 3.58325 44.3655C1.85361 48.5211 1.61305 52.8934 2.51269 57.2741C3.85687 63.8248 7.58133 68.6255 13.435 71.6719C16.864 73.4564 20.5681 73.8278 24.3453 73.3016V73.3002ZM15.3292 42.2532C11.9325 44.8642 10.3548 48.3868 10.3604 52.771C10.3682 52.9208 10.3738 53.0756 10.3794 53.2339C10.4005 53.7987 10.423 54.4099 10.5342 55.0177C11.4634 60.0856 14.3445 63.4218 19.1873 64.9854C20.5181 65.4152 21.9116 65.5031 23.3064 65.4525C27.9628 65.2809 31.465 63.139 33.7841 59.0601C35.0594 56.8141 35.4167 54.3389 35.283 51.7828C35.0868 48.0379 33.5935 44.9409 30.7194 42.5535C28.6754 40.8556 26.3021 40.0234 23.6855 39.8792C20.6391 39.7104 17.7967 40.3554 15.3264 42.2553L15.3292 42.2532Z" />
</svg>
