<svg width="108" height="108" viewBox="0 0 108 108" fill="none" xmlns="http://www.w3.org/2000/svg">
<path fill-rule="evenodd" clip-rule="evenodd" d="M40.3291 18.1094C55.7928 18.1094 61.1777 26.1533 61.1777 32.4717C61.1777 36.8502 59.326 40.7727 56.3477 43.4043C59.3173 45.4169 61.8947 48.0122 63.1357 51.1602L63.1465 51.1836C63.1459 51.1877 63.146 51.1922 63.1465 51.1963L63.1592 51.2314L78.1738 90.3809C78.1305 90.381 72.7793 90.4008 67.1299 90.3809C61.4575 90.3608 60.0186 85.9824 60.0186 85.9824L54.0439 70.4062C53.0533 70.9285 52.0248 71.3722 50.9688 71.7354C50.5941 71.8642 50.2153 71.9807 49.834 72.0889C49.5705 72.1636 49.3063 72.236 49.04 72.3008L49.0088 72.3086C48.1123 72.5242 47.2074 72.6981 46.2969 72.8311C45.69 72.9197 45.0807 72.9903 44.4697 73.042C44.1641 73.0678 43.8581 73.0889 43.5518 73.1055C42.9391 73.1386 42.3253 73.1535 41.7109 73.1494H13.1973V56.5498L2 51.3447V39.21H13.1992V18.1094H40.3291ZM29.2939 60.8477H39.96C40.0992 60.8472 40.2356 60.8445 40.3691 60.8398C44.6941 60.6866 46.0633 58.3172 46.0635 56.0967C46.0635 54.6918 45.5147 53.2249 44.0137 52.2988C43.0644 51.7135 41.7354 51.3428 39.9229 51.3428H29.2939V60.8477ZM29.2939 39.21H39.3535C43.7399 39.1973 45.1133 36.8927 45.1133 34.7285C45.1132 32.5644 43.7335 30.2452 39.3184 30.2451H29.2939V39.21Z" />
<path d="M93.9551 34.5732C99.6108 34.5545 104.964 34.5731 105 34.5732L85.2822 85.9785C85.2822 85.9785 83.8454 90.3553 78.1768 90.3779L72.6523 75.9775L86.8438 38.9717C86.8573 38.9307 88.3073 34.5922 93.9551 34.5732Z" />
</svg>
